<svg height="64" preserveAspectRatio="none" viewBox="0 0 64 64" width="64" xmlns="http://www.w3.org/2000/svg"><path d="m7.375 10.125h-1.625l-1.375 1.75h3z" fill="#3e3a39"/><path d="m8.125 12.625h-5.2929687l2.5532227-3.25h2.739746zm-2.2070312-1.5h.7070312v-.25h-.5102539z"/><path d="m61.0087891 13.6479492-8.9042969-.2021484 4.7558594-3.1708984 3.0566406-.3398438zm-4.1132813-1.59375 2.0957031.0478516-.1582031-.5371094-1.4433594.1601563z"/><path d="m25.9375 12.3125h9.5l.1875 7.0625h-8.625z" fill="#f5f5f5"/><path d="m36.1386719 19.875h-9.5688477l-1.2133789-8.0625h10.5683594zm-8.7084961-1h7.6811523l-.1611328-6.0625h-8.4316406z"/><path d="m29.5 23.875.75 3.875s-.25 2.75-3.25 2.5l.625.625s3.625.625 4.875-3.375c0 0 4.375-.25 5.125-2.125 0 0 .625-5.5-8.125-1.5z" fill="#3e3a39"/><path d="m28.1606445 31.6606445c-.4086914 0-.6630859-.0463867-.6630859-.0463867l-.2304688-.0419922-.7973633-.7919922.5927734-1.277832c1.9570313.1669922 2.3623047-1.3320313 2.4282227-1.7290039l-.8393555-4.3354492.5366211-.2451172c4.1293945-1.8867188 6.9477539-2 8.355957-.4233398.9921875 1.1113281.8339844 2.6259766.8261719 2.6899414l-.0488281.1938477c-.7568359 1.8935547-3.9726563 2.4174805-5.2734375 2.5532227-1.2026367 3.1059569-3.7910156 3.4541014-4.887207 3.4541014zm2.1889649-7.3422851.6567383 3.3935547-.0092773.105957c-.0390625.4291992-.1967773 1.0063477-.5283203 1.5527344.5258789-.4335938 1.0029297-1.0942383 1.3154297-2.0942383l.1547852-.4946289.5175781-.0302734c1.5678711-.0917969 3.9213867-.6342773 4.4282227-1.5615234.0039063-.2553711-.0283203-.9448242-.4667969-1.4287109-.857422-.9472658-3.0312501-.7519533-6.0683595.5571288z"/><path d="m58 13.625h-20.25l1.875 3.375h-17.25l.625-3.875h-18.625l-2.125 5.625.875 2.375c-.25.75.5 2.875.5 2.875h13.75c1.75.25 2.25 3 2.125 4.875s1.5 5.25 1.5 5.25h14.375c2.25-1 5 .375 5.375.875s0 3.25.25 3.625 2.5 1.875 2.25 3.25.25 2.875.625 3.75 2.25 2.125 1 3.625-1.25 2.375-1.25 2.375l3.125.5 11.125-1.125 1.25.875c3-2.75 1.25-12.75.375-13.875s-2.125-4-4.25-8 2.25-7.125 2.25-7.125l3.625-.125 1.5-1.125v-5.625zm-21.625 17.75c-1.25.875-2.375.875-2.375.875h-10.375c-2.375-.25-2.125-4.375-2-5.5s2.875-2.625 2.875-2.625 11.375-.375 12.5.375.625 6-.625 6.875z" fill="#3e3a39"/><path d="m46.7285156 52.8808594-3.8535156-.616211v-.6396484c0-.1914063.0683594-1.2285156 1.4238281-2.8554688.4550781-.5449219.2880859-.9345703-.4814453-1.9042969-.2529297-.3183594-.4921875-.6201172-.6318359-.9443359-.4589844-1.0722656-.9482422-2.6669922-.6738281-4.1796875.1152344-.6347656-1.0556641-1.6728516-1.5556641-2.1162109-.2910156-.2587891-.4667969-.4140625-.5800781-.5839844-.2333984-.3505859-.2324219-.8535156-.2089844-1.9589844.0107422-.5126953.03125-1.4648438-.0576172-1.6992188-.1533203-.1376953-1.4980469-.8632813-2.9628906-.8632813-.5390625 0-1.0322266.0976563-1.4667969.2910156l-.1455078.0644533h-15.0053711l-.2045898-.4248047c-.175293-.3632813-1.7070313-3.6108398-1.5727539-5.625.121582-1.8183594-.394043-3.8710938-1.4379883-4.0751953h-14.2192383l-.1762695-.5004883c-.2260742-.6396484-.6948242-2.1206055-.5703125-3.0649414l-.8979493-2.4379883 2.4067383-6.371582h20.0244141l-.625 3.875h15.0947266l-1.875-3.375h21.7060547l5.1933593 2.6669922v6.4580078l-1.9882813 1.4912109-3.6210938.125c-.734375.5908203-3.4404297 3.0449219-1.8535156 6.0317383.8154298 1.5341797 1.5019532 2.9028321 2.0878907 4.0717774.8925781 1.7783203 1.5966797 3.1826172 2.0917969 3.8193359 1.0849609 1.3955078 2.8710938 11.8349609-.4599609 14.8886719l-.4433594.4072266-1.515625-1.0605469zm-2.1376953-1.8613281 2.1806641.3496094 11.3056641-1.1435547.9267578.6484375c2.0136719-2.9121094.6279297-11.4199219-.0966797-12.4150391-.5849609-.7519531-1.2822266-2.1425781-2.2480469-4.0664063-.5820313-1.1601563-1.2626953-2.5185547-2.0712891-4.0405273-1.9248047-3.6230469.7783203-6.8745117 2.4765625-8.0874023l.1835938-.1313477 3.6152344-.1245117 1.0117187-.7587891v-4.7919922l-4.0566406-2.0830078h-18.7939453l1.875 3.375h-19.4052735l.625-3.875h-17.2255859l-1.8432617 4.878418.8696289 2.359375-.0834961.2495117c-.0678711.2319336.0834961 1.0581055.3330078 1.8876953l13.3115234.0073242c2.140625.3061523 2.9350586 3.1523438 2.7675781 5.6674805-.0800781 1.1958008.7373047 3.3305664 1.2324219 4.4501953h13.7426758c.5869141-.2363281 1.2333984-.3554688 1.9228516-.3554688 1.8652344 0 3.7353516.90625 4.203125 1.5302734.3447266.4589844.3447266 1.2734375.3173828 2.5644531-.0078125.3701172-.0195313.9072266.0048828 1.1416016.0625.0566406.1630859.1435547.2792969.2460938.8613281.7636719 2.3027344 2.0419922 2.0371094 3.5068359-.2197266 1.2070313.2666016 2.5986328.5761719 3.3203125.0595703.140625.2470703.3759766.4277344.6044922.6181641.7783203 1.7675781 2.2265625.4589844 3.796875-.4453126.5341797-.7070314.9687501-.8603517 1.2890626zm-10.5908203-18.0195313h-10.375c-.7744141-.0771484-1.3779297-.4091797-1.824707-.9643555-1.2368164-1.5371094-1.0175781-4.4975586-.9208984-5.3686523.15625-1.4042969 2.5356445-2.8046875 3.2612305-3.2001953l.1567383-.0854492.1777344-.0058594c.0288086-.0009766 2.890625-.0942383 5.8530273-.0942383 6.1962891 0 6.7763672.3867188 7.0878906.5947266.6201172.4135742.9433594 1.3818359.9599609 2.878418.0185547 1.6494141-.3837891 4.4042969-1.5712891 5.2348633-1.4267578.9990234-2.7490234 1.0107421-2.8046875 1.0107421zm-9.2944336-8.1308594c-1.1811523.671875-2.2944336 1.6020508-2.3349609 1.9638672-.1586914 1.4262695-.097168 3.3979492.5986328 4.262207.1987305.2470703.4321289.3769531.734375.4086914l10.2963867-.0039062c.0029297 0 .9238281-.0249023 1.9453125-.7392578.2871094-.2016602.7587891-1.3769531.8964844-3.0600586.1318359-1.6088867-.1308594-2.4501953-.2714844-2.5869141-.0859375-.0356445-.9638672-.3325195-6.2421875-.3325195-2.512207 0-4.9506836.0673828-5.6225586.0878906z"/><path d="m2.125 19.375h60.75v-3.75l-2.375-3.5h-25l-.3125 2.1875h-8.75l-.6875-2.4375h-22.75z" fill="#595757"/><path d="m58.0166016 50.8427734-15.1416016 1.421875.1650391 2.0683594.1025391.1435547c.7392577 1.0390625 2.508789 1.5234375 5.5703124 1.5234375 1.6972656 0 9.3388672-1.2978516 9.6630859-1.3535156l.8623048-.1464844z"/><path d="m3.375 22h16.125" fill="#3e3a39"/><path d="m3.375 21.5h16.125v1h-16.125z"/><path d="m39.167179 16.562204h4.540642v2.000592h-4.540642z" transform="matrix(.6022 .7983452 -.7983452 .6022 30.504774 -26.095066)"/><path d="m51.56757 16.562204h4.540642v2.000592h-4.540642z" transform="matrix(.6022 .7983452 -.7983452 .6022 35.437649 -35.994862)"/><path d="m48.466984 16.562204h4.540642v2.000592h-4.540642z" transform="matrix(.6022 .7983452 -.7983452 .6022 34.204235 -33.519524)"/><path d="m45.367374 16.562204h4.540642v2.000592h-4.540642z" transform="matrix(.6022 .7983452 -.7983452 .6022 32.97121 -31.044964)"/><path d="m42.266789 16.562204h4.540642v2.000592h-4.540642z" transform="matrix(.6022 .7983452 -.7983452 .6022 31.737799 -28.569626)"/><path d="m54.667179 16.562204h4.540642v2.000592h-4.540642z" transform="matrix(.6022 .7983452 -.7983452 .6022 36.670673 -38.469418)"/><path d="m29.625 20.5h3.75v2.125h-3.75z" fill="#3e3a39"/><path d="m33.875 23.125h-4.75v-3.125h4.75zm-3.75-1h2.75v-1.125h-2.75z"/><path d="m38.875 23.625 15-.5s-5.375 6.375-12.375 8.25z" fill="#717071"/><path d="m42.625317 32.697636h.999367v4.229731h-.999367z" transform="matrix(.3244243 .9459116 -.9459116 .3244243 62.063751 -17.27396)"/><path d="m43.500317 35.302364h.999367v5.020271h-.999367z" transform="matrix(.3244243 .9459116 -.9459116 .3244243 65.492615 -16.074905)"/><path d="m43.2519531 41.7460938-.2539062-.9667969 4.4082031-1.2978516.2539063.9667969z"/><path d="m43.7832031 45.2246094-.3164062-.9492188 4.243164-1.1103515.3164063.9492187z"/><path d="m47.4658203 50.8144531-.6455078-3.7109375 11.0957031-5.890625.8847656 7.9628906zm.4638672-3.1679687.3544922 2.0390625 9.4150391-1.3613281-.6152344-5.5371094z"/><path d="m16.375 19.625 1.625 4.25h7.875" fill="#070505"/><path d="m25.875 24.375h-8.2192383l-1.7475586-4.5712891.9335938-.3574218 1.5024414 3.9287109h7.5307617z"/><path d="m42 19.625h10.875v1.875h-10.875z"/><path d="m53.625 22.25h-12.375v-3.375h12.375zm-10.875-1.5h9.375v-.375h-9.375z"/><path d="m16.625 15.125h44.625v1h-44.625z" fill="#9c9c9d"/><path d="m15.8793945 17.875h-13.2543945v-1h12.9956055l.6171875-.3427734-1.6972657-3.9604493.9189454-.3935546 2.0527343 4.7895507z" fill="#3e3a39"/><path d="m63.625 20.125h-62.3427734l1.050293-9h23.9853516l.6875 2.4375h7.5317383l.3125-2.1875h26.0478516l2.7275389 4.0195313zm-60.6572266-1.5h59.1572266v-2.7695313l-2.0224609-2.9804687h-23.9521485l-.3125 2.1875h-9.9682617l-.6875-2.4375h-21.5146484z"/></svg>